<svg xmlns="http://www.w3.org/2000/svg" viewBox="0 0 64 64">
  <rect width="64" height="64" rx="14" fill="#121212"/>
  <path d="M32 7 52 16v14c0 13.5-8.4 22.7-20 27-11.6-4.3-20-13.5-20-27V16z" fill="#d32f2f"/>
  <path d="M32 12 47 19v11c0 10-5.8 17-15 21-9.2-4-15-11-15-21V19z" fill="#1e1e1e"/>
  <circle cx="32" cy="31" r="12" fill="#fff"/>
  <path d="m32 20 5.4 4-2.1 6.3h-6.6L26.6 24z" fill="#121212"/>
  <path d="M20.6 27.2 27 24l1.8 6.3-4.9 4.6-4-2.9c.1-1.7.3-3.3.7-4.8zm22.8 0c.4 1.5.6 3.1.7 4.8l-4 2.9-4.9-4.6L37 24zm-16 15.5 1.3-6.7h6.6l1.3 6.7-4.6 2.1zm-3.5-7.8 4.9 1.1-1.3 6.6c-2.7-1.1-4.8-3.2-6.1-5.8zm16.2 0 2.5 1.9c-1.3 2.6-3.4 4.7-6.1 5.8L35.2 36z" fill="#121212"/>
</svg>
